<svg xmlns="http://www.w3.org/2000/svg" xmlns:xlink="http://www.w3.org/1999/xlink" width="400" height="400" viewBox="0 0 400 400">
<rect data-name="background" width="100%" height="100%" fill="#ffffff"/><g data-name="watermark" class="watermark-logodesign" stroke="#ffffff" transform="translate(40, 280) scale(1.5) rotate(-45)" style="opacity:0.040000010281801224;"><path fill="#000000" d="M19.52,53.48c-10.32,0-17.72-7.64-17.72-17.32c0-10,8.2-17.76,18.32-17.76c10.36,0,17.76,7.48,17.76,17.56c0,6.24-3.56,9.84-7.84,9.84c-2.96,0-4.44-1.56-5.04-3.72c-1.48,2-3.64,3.08-6.16,3.08c-4.84,0-8.52-3.8-8.52-8.96c0-5.2,3.64-9,8.56-9c2.36,0,4.52,0.96,6,3l0-2.52l3.44,0l0,12.48c0,1.68,0.6,2.96,2.24,2.96c2.12,0,4.2-2.52,4.2-7.12c0-8.28-5.76-14.68-14.6-14.68c-8.48,0-15.24,6.44-15.24,14.84c0,8.16,6.24,14.4,14.68,14.4c2.88,0,6.04-0.68,8.2-2.4l0.8,2.88c-2.36,1.68-5.68,2.44-9.08,2.44z M19.36,41.92c3.24,0,5.64-2.4,5.64-5.76c0-3.32-2.36-5.68-5.64-5.68c-3.2,0-5.48,2.36-5.48,5.68s2.32,5.76,5.48,5.76z M46.84,42.4l14.72,0l0,4l-19.08,0l0-28l4.36,0l0,24z M74.8,46.92c-6.16,0-10.68-4.56-10.68-10.6c0-6,4.52-10.56,10.68-10.56s10.68,4.56,10.68,10.56c0,6.04-4.52,10.6-10.68,10.6z M74.8,43.12c3.84,0,6.6-2.92,6.6-6.76c0-3.88-2.76-6.8-6.6-6.8s-6.6,2.92-6.6,6.8c0,3.84,2.76,6.76,6.6,6.76z M105.68,26.28l4.2,0l0,19.4c0,5.6-4.08,9.64-10.2,9.64c-4.84,0-7.92-2.24-9.6-5.24l3.68-1.36c1.2,2,3.12,3.08,6,3.08c3.84,0,5.88-2.64,5.92-6.08l0-2.96c-1.56,2.12-4,3.4-7.08,3.4c-5.84,0-10.04-4.44-10.04-10.2c0-5.96,4.2-10.2,10.04-10.2c3.08,0,5.52,1.28,7.08,3.36l0-2.84z M99.24,42.4c3.72,0,6.56-2.72,6.56-6.44s-2.84-6.4-6.56-6.4c-3.88,0-6.56,2.68-6.56,6.4s2.68,6.44,6.56,6.44z M124.92,46.92c-6.16,0-10.68-4.56-10.68-10.6c0-6,4.52-10.56,10.68-10.56s10.68,4.56,10.68,10.56c0,6.04-4.52,10.6-10.68,10.6z M124.92,43.12c3.84,0,6.6-2.92,6.6-6.76c0-3.88-2.76-6.8-6.6-6.8s-6.6,2.92-6.6,6.8c0,3.84,2.76,6.76,6.6,6.76z M141.88,46.68c-1.56,0-2.76-1.2-2.76-2.72c0-1.48,1.2-2.68,2.76-2.68s2.76,1.2,2.76,2.68c0,1.52-1.2,2.72-2.76,2.72z M158.2,46.92c-5.68,0-10-4.52-10-10.6c0-6.04,4.32-10.56,10-10.56c3.24,0,5.72,1.4,7.24,3.56l0-3.04l4.16,0l0,20.12l-4.16,0l0-3.04c-1.52,2.16-4,3.56-7.24,3.56z M158.88,43.16c3.68,0,6.64-2.88,6.64-6.84c0-3.92-2.96-6.8-6.64-6.8c-3.84,0-6.56,2.84-6.56,6.8s2.72,6.84,6.56,6.84z M186.6,25.76c5.68,0,10.04,4.52,10.04,10.56c0,6.08-4.36,10.6-10.04,10.6c-3.2,0-5.68-1.4-7.2-3.56l0,11.44l-4.2,0l0-28.52l4.2,0l0,3.04c1.52-2.16,4-3.56,7.2-3.56z M185.92,43.16c3.84,0,6.56-2.88,6.56-6.84s-2.72-6.8-6.56-6.8c-3.68,0-6.64,2.88-6.64,6.8c0,3.96,2.96,6.84,6.64,6.84z M212.36,25.76c5.68,0,10.04,4.52,10.04,10.56c0,6.08-4.36,10.6-10.04,10.6c-3.2,0-5.68-1.4-7.2-3.56l0,11.44l-4.2,0l0-28.52l4.2,0l0,3.04c1.52-2.16,4-3.56,7.2-3.56z M211.68,43.16c3.84,0,6.56-2.88,6.56-6.84s-2.72-6.8-6.56-6.8c-3.68,0-6.64,2.88-6.64,6.8c0,3.96,2.96,6.84,6.64,6.84z"/></g><g data-name="icon" fill="#3d3935" data="id:7546461" transform="translate(88.13764143603402,41.210877894385376) scale(2.2374623713924358)">
    
 <path d="m50 36.457c3.0586 0 5.8242 1.2383 7.832 3.2422 1.1172 1.1172 1.9961 2.4688 2.5547 3.9766l6.9102-9.4453c-5.5156-0.55859-11.316-0.85547-17.297-0.85547s-11.777 0.29688-17.297 0.85547l6.9102 9.4453c0.5625-1.5078 1.4414-2.8633 2.5547-3.9766 2.0039-2.0039 4.7734-3.2422 7.832-3.2422zm28.297-0.71094c0.066406 0.17578 0.12109 0.35156 0.16797 0.53125 0.39062 1.4414 0.25 3.0352-0.49609 4.4727l-9.8594 18.898c-1.5195 2.918-2.6289 5.7812-3.3516 8.7344-0.71875 2.9336-1.0625 5.9883-1.0625 9.3047 0 1.2656-1.0273 2.2969-2.2969 2.2969-1.2695 0-2.2969-1.0273-2.2969-2.2969 0-3.6445 0.39063-7.0547 1.207-10.383 0.8125-3.3164 2.0508-6.5195 3.7461-9.7734l9.8594-18.898c0.19141-0.36719 0.22656-0.78516 0.12109-1.1719-0.097656-0.37891-0.33984-0.71875-0.69141-0.9375l-0.125-0.078126c-0.35938-0.22656-0.78125-0.29687-1.1719-0.22266-0.38281 0.070313-0.74219 0.28906-0.99219 0.63281l-10.711 14.633c-0.5625 1.4648-1.4258 2.7812-2.5156 3.8711-2.0039 2.0039-4.7734 3.2422-7.832 3.2422s-5.8242-1.2383-7.832-3.2422c-1.0898-1.0898-1.9531-2.4062-2.5156-3.8711l-10.711-14.633c-0.25391-0.34375-0.61328-0.5625-0.99219-0.63281-0.39453-0.074218-0.80859-0.007812-1.1719 0.22266l-0.125 0.078126c-0.35156 0.22266-0.58984 0.5625-0.69141 0.9375-0.10547 0.38281-0.070312 0.80078 0.12109 1.1719l9.8594 18.898c1.6992 3.2539 2.9336 6.4609 3.7461 9.7734 0.81641 3.3281 1.207 6.7383 1.207 10.383 0 1.2656-1.0273 2.2969-2.2969 2.2969s-2.2969-1.0273-2.2969-2.2969c0-3.3164-0.34375-6.3711-1.0625-9.3047-0.72266-2.9531-1.8281-5.8164-3.3516-8.7344l-9.8594-18.898c-0.75-1.4375-0.88672-3.0273-0.49609-4.4727 0.046875-0.17578 0.10547-0.35547 0.16797-0.53125-1.1562 0.20312-2.2969 0.42188-3.418 0.65234l2.2812 8.5039c0.32812 1.2227-0.39844 2.4805-1.6211 2.8086-1.2227 0.32812-2.4766-0.39844-2.8047-1.6211l-2.3281-8.6914c-0.89844 0.21875-1.7812 0.44531-2.6523 0.67969l0.89453 3.3438c0.32812 1.2227-0.39844 2.4805-1.6211 2.8086-1.2227 0.32812-2.4805-0.39844-2.8086-1.6211l-0.86719-3.2383c-0.91016 0.28906-1.8047 0.58984-2.6758 0.89844-1.1953 0.42188-2.5039-0.20703-2.9258-1.4023-0.42188-1.1953 0.20703-2.5039 1.4023-2.9219 0.97656-0.34766 1.9844-0.68359 3.0117-1.0117l-0.87109-3.2578c-0.32812-1.2227 0.39844-2.4805 1.6211-2.8047 1.2227-0.32812 2.4805 0.39844 2.8047 1.6211l0.84766 3.1562c0.87109-0.23438 1.7539-0.46094 2.6523-0.67969l-2.6953-10.062c-0.32812-1.2227 0.39844-2.4766 1.6211-2.8047 1.2227-0.32812 2.4766 0.39844 2.8047 1.6211l2.7461 10.238c2.4258-0.5 4.9375-0.94922 7.5195-1.3359 7.8789-1.1836 16.441-1.8359 25.383-1.8359s17.504 0.65234 25.383 1.8359c2.582 0.39062 5.0938 0.83594 7.5195 1.3359l2.7461-10.238c0.32812-1.2227 1.5859-1.9492 2.8047-1.6211 1.2227 0.32813 1.9492 1.5859 1.6211 2.8047l-2.6953 10.062c0.89844 0.21875 1.7812 0.44531 2.6523 0.67969l0.84766-3.1562c0.32812-1.2227 1.5859-1.9492 2.8047-1.6211 1.2227 0.32812 1.9492 1.5859 1.6211 2.8047l-0.87109 3.2578c1.0273 0.32812 2.0352 0.66406 3.0117 1.0117 1.1953 0.42188 1.8203 1.7305 1.4023 2.9219-0.42188 1.1953-1.7305 1.8203-2.9258 1.4023-0.87109-0.30859-1.7656-0.60938-2.6758-0.89844l-0.86719 3.2383c-0.32812 1.2227-1.5859 1.9492-2.8086 1.6211s-1.9492-1.5859-1.6211-2.8086l0.89453-3.3438c-0.86719-0.23438-1.7539-0.46094-2.6523-0.67969l-2.3281 8.6914c-0.32812 1.2227-1.5859 1.9492-2.8047 1.6211-1.2227-0.32813-1.9492-1.5859-1.6211-2.8086l2.2812-8.5039c-1.1211-0.22656-2.2617-0.44531-3.418-0.65234z"/>

    </g><g data-name="business_name" fill="#3d3935" data="id:363" transform="translate(65.84,227.22638657302517) scale(1.2642291417988216)"><path d="M15.84,18.24l-6.04,13.76l9.56,0l0,8l-13.08,0l-6.28,0l3.52-8l6.04-13.76l-9.56,0l0-8l13.08,0l6.28,0l-3.52,8l0,0z M43.6,20.12l-3.2,0l4.04,19.88l-8.12,0l-0.76-3.68l-7.08,0l-0.64,3.68l-6.48,0l3.44-19.88l-1.96,0l0-9.88l20.76,0l0,9.88z M29.92,27.8l3.92,0l-1.56-7.68l-1,0z M55.6,10.24q2.76,0,4.48,0.38t2.68,1.14t1.3,1.9t0.34,2.66l0,8.12q0,1.52-0.44,2.62t-1.46,1.82t-2.72,1.06t-4.18,0.34q-0.64,0-1.22-0.02t-1.1-0.06l0,9.8l-6.84,0l0-29.76l9.16,0z M57.16,19.08q0-1.24-0.48-1.88t-2.08-0.64q-0.92,0-1.32,0.2l0,8q0.44,0.16,1.32,0.16q1.44,0,2-0.58t0.56-1.86l0-3.4z  M75.6,40l0-29.76l17.12,0l0,10.24l-10.28,0l0,4.16l8.6,0l0,6l-8.6,0l0,9.36l-6.84,0l0,0z M94.72,16.2l0-5.96l14.72,0l0,5.96l-3.96,0l0,16.12l3.96,0l0,7.68l-14.72,0l0-7.68l3.96,0l0-16.12l-3.96,0l0,0z M111.44,20.48l0-10.24l21.76,0l0,10.24l-7.48,0l0,19.52l-6.8,0l0-19.52l-7.48,0l0,0z M147.8,26.68l0-16.44l6,0l0,29.76l-7.64,0l-4.12-21.16l0,21.16l-6.84,0l0-29.76l9.68,0l2.92,16.44l0,0z M155.8,40l0-29.76l17.32,0l0,8.36l-10.48,0l0,3.68l8.6,0l0,5.96l-8.6,0l0,3.4l10.48,0l0,8.36l-17.24,0l-0.08,0l0,0z M191.56,25.44q0.52,0.36,0.82,0.92t0.3,1.36l0,7q0,1.4-0.44,2.4t-1.46,1.64t-2.7,0.94t-4.16,0.3q-2.52,0-4.22-0.32t-2.72-0.96t-1.44-1.64t-0.42-2.36l0-4.36l5.92,0l0,1.2q0,0.72,0.64,1.06t2.4,0.34q1.72,0,2.38-0.34t0.66-1.06l0-1.96q0-0.44-0.2-0.74t-0.76-0.5q-0.48-0.12-1-0.12q-0.2,0-0.58,0.02t-0.8,0.02l-0.8,0l-0.5,0q-3.16-0.12-4.8-0.86t-2.2-2.18q-0.36-0.96-0.36-2.2l0-7.32q0-1.36,0.42-2.38t1.42-1.7t2.6-1.04t4-0.36q2.64,0,4.28,0.34t2.58,1.02t1.26,1.72t0.32,2.4l0,6.04l-5.76,0l0-3.2q0-1.32-0.4-1.96t-1.68-0.64q-1.2,0-1.64,0.66t-0.44,1.94l0,3.44q0,0.08,0.06,0.46t0.34,0.82t0.78,0.8t1.42,0.36q0.64,0,1.56-0.02t1.88,0.06t1.86,0.28t1.58,0.68z M211.12,25.44q0.52,0.36,0.82,0.92t0.3,1.36l0,7q0,1.4-0.44,2.4t-1.46,1.64t-2.7,0.94t-4.16,0.3q-2.52,0-4.22-0.32t-2.72-0.96t-1.44-1.64t-0.42-2.36l0-4.36l5.92,0l0,1.2q0,0.72,0.64,1.06t2.4,0.34q1.72,0,2.38-0.34t0.66-1.06l0-1.96q0-0.44-0.2-0.74t-0.76-0.5q-0.48-0.12-1-0.12q-0.2,0-0.58,0.02t-0.8,0.02l-0.8,0l-0.5,0q-3.16-0.12-4.8-0.86t-2.2-2.18q-0.36-0.96-0.36-2.2l0-7.32q0-1.36,0.42-2.38t1.42-1.7t2.6-1.04t4-0.36q2.64,0,4.28,0.34t2.58,1.02t1.26,1.72t0.32,2.4l0,6.04l-5.76,0l0-3.2q0-1.32-0.4-1.96t-1.68-0.64q-1.2,0-1.64,0.66t-0.44,1.94l0,3.44q0,0.08,0.06,0.46t0.34,0.82t0.78,0.8t1.42,0.36q0.64,0,1.56-0.02t1.88,0.06t1.86,0.28t1.58,0.68z"/></g><g data-name="slogan" fill="#3d3935" data="id:353" transform="translate(64.2822433652602,276.38119903142064) scale(0.6892725592795066)"><path d="M21.94,32.74q0.26,0,0.43,0.17t0.17,0.43l0,2.9q0,5.92-2.35,8.62t-7.49,2.7q-5.46,0-7.95-3.23t-2.49-10.67q0-7.46,2.48-10.68t7.92-3.22q2.16,0,3.78,0.45t2.91,1.48t2.03,2.83t0.88,4.38q0.04,0.66-0.56,0.66l-3.1,0q-0.58,0-0.66-0.52q-0.34-2.78-1.67-3.82t-3.61-1.04q-1.18,0-2.04,0.23t-1.62,0.86t-1.24,1.68t-0.75,2.73t-0.27,3.98q0,2.86,0.39,4.76t1.22,2.92t1.87,1.41t2.58,0.39q1.4,0,2.35-0.29t1.67-1.03t1.05-2.06t0.33-3.3l0-0.08l-6.18,0q-0.26,0-0.43-0.17t-0.17-0.43l0-2.44q0-0.26,0.17-0.43t0.43-0.17l9.92,0z M46.7,36.38q0,1.02-0.33,1.45t-1.37,0.43l-13.64,0q0.14,2.64,1.94,4.12t4.8,1.48q2.78,0,4.92-1.26q0.44-0.26,0.76-0.16t0.8,0.7q0.54,0.66,0.59,1.05t-0.43,0.85q-1.14,1.12-3.01,1.77t-4.09,0.65q-4.76,0-7.65-2.87t-2.89-7.53q0-4.6,2.79-7.45t7.31-2.85q4.42,0,6.96,2.69t2.54,6.93z M37.2,30.56q-2.32,0.02-3.81,1.21t-1.89,3.41l11.26,0q-0.24-2.24-1.71-3.45t-3.85-1.17z M71.06,42.22q0.74,0.74,0.83,1.21t-0.29,0.93q-0.28,0.4-0.82,0.87t-1.4,1t-2.14,0.88t-2.7,0.35q-1.08,0-2.07-0.2t-2.02-0.74t-1.78-1.39t-1.23-2.27t-0.48-3.24l0-8.58l-5.52,0q-0.28,0-0.44-0.16t-0.16-0.44l0-2.48q0-0.28,0.16-0.44t0.44-0.16l5.52,0l0-5.6q0-0.28,0.16-0.44t0.44-0.16l3.24,0q0.28,0,0.44,0.16t0.16,0.44l0,5.6l8.74,0q0.26,0,0.43,0.16t0.17,0.44l0,2.48q0,0.28-0.17,0.44t-0.43,0.16l-8.74,0l0,7.88q0,1.32,0.34,2.25t0.94,1.41t1.25,0.68t1.43,0.2q2.18,0,4.06-1.62q0.34-0.36,0.69-0.29t0.95,0.67z  M105.5,46.96l-3.4,0q-0.26,0-0.43-0.16t-0.17-0.44l0-25.6q0-0.28,0.17-0.44t0.43-0.16l17.2,0q0.26,0,0.43,0.16t0.17,0.44l0,2.92q0,0.28-0.17,0.44t-0.43,0.16l-13.2,0l0,8.84l12.28,0q0.26,0,0.43,0.16t0.17,0.44l0,2.92q0,0.28-0.17,0.44t-0.43,0.16l-12.28,0l0,9.12q0,0.28-0.17,0.44t-0.43,0.16z M135.08,22.22q-1.18,0-2.01-0.82t-0.83-2t0.83-2.01t2.01-0.83t2,0.83t0.82,2.01t-0.82,2t-2,0.82z M140.66,43.24l3.22,0q0.28,0,0.44,0.16t0.16,0.44l0,2.52q0,0.28-0.16,0.44t-0.44,0.16l-4.86,0q-2.8,0-4.29-1.57t-1.49-4.41l0-10.1l-6.42,0q-0.26,0-0.43-0.16t-0.17-0.44l0-2.52q0-0.28,0.17-0.44t0.43-0.16l10.26,0q0.28,0,0.44,0.16t0.16,0.44l0,12.48q0,3,2.98,3z M169.46,42.22q0.74,0.74,0.83,1.21t-0.29,0.93q-0.28,0.4-0.82,0.87t-1.4,1t-2.14,0.88t-2.7,0.35q-1.08,0-2.07-0.2t-2.02-0.74t-1.78-1.39t-1.23-2.27t-0.48-3.24l0-8.58l-5.52,0q-0.28,0-0.44-0.16t-0.16-0.44l0-2.48q0-0.28,0.16-0.44t0.44-0.16l5.52,0l0-5.6q0-0.28,0.16-0.44t0.44-0.16l3.24,0q0.28,0,0.44,0.16t0.16,0.44l0,5.6l8.74,0q0.26,0,0.43,0.16t0.17,0.44l0,2.48q0,0.28-0.17,0.44t-0.43,0.16l-8.74,0l0,7.88q0,1.32,0.34,2.25t0.94,1.41t1.25,0.68t1.43,0.2q2.18,0,4.06-1.62q0.34-0.36,0.69-0.29t0.95,0.67z  M216.44,20.16l3.1,0q0.54,0,0.48,0.68l-3.22,25.64q-0.02,0.22-0.25,0.35t-0.49,0.13l-3.98,0q-0.6,0-0.7-0.48l-2.28-14.56l-2.28,14.56q-0.1,0.48-0.7,0.48l-3.98,0q-0.26,0-0.49-0.13t-0.25-0.35l-3.22-25.64q-0.06-0.68,0.48-0.68l3.1,0q0.62,0,0.68,0.48l2.12,20.38l2.98-17.98q0.08-0.48,0.68-0.48l1.76,0q0.6,0,0.68,0.48l2.98,17.98l2.12-20.38q0.06-0.48,0.68-0.48z M233.48,22.22q-1.18,0-2.01-0.82t-0.83-2t0.83-2.01t2.01-0.83t2,0.83t0.82,2.01t-0.82,2t-2,0.82z M239.06,43.24l3.22,0q0.28,0,0.44,0.16t0.16,0.44l0,2.52q0,0.28-0.16,0.44t-0.44,0.16l-4.86,0q-2.8,0-4.29-1.57t-1.49-4.41l0-10.1l-6.42,0q-0.26,0-0.43-0.16t-0.17-0.44l0-2.52q0-0.28,0.17-0.44t0.43-0.16l10.26,0q0.28,0,0.44,0.16t0.16,0.44l0,12.48q0,3,2.98,3z M267.86,42.22q0.74,0.74,0.83,1.21t-0.29,0.93q-0.28,0.4-0.82,0.87t-1.4,1t-2.14,0.88t-2.7,0.35q-1.08,0-2.07-0.2t-2.02-0.74t-1.78-1.39t-1.23-2.27t-0.48-3.24l0-8.58l-5.52,0q-0.28,0-0.44-0.16t-0.16-0.44l0-2.48q0-0.28,0.16-0.44t0.44-0.16l5.52,0l0-5.6q0-0.28,0.16-0.44t0.44-0.16l3.24,0q0.28,0,0.44,0.16t0.16,0.44l0,5.6l8.74,0q0.26,0,0.43,0.16t0.17,0.44l0,2.48q0,0.28-0.17,0.44t-0.43,0.16l-8.74,0l0,7.88q0,1.32,0.34,2.25t0.94,1.41t1.25,0.68t1.43,0.2q2.18,0,4.06-1.62q0.34-0.36,0.69-0.29t0.95,0.67z M284.86,26.76q3.24,0,5.26,2.21t2.02,6.07l0,11.32q0,0.28-0.17,0.44t-0.43,0.16l-3.24,0q-0.26,0-0.43-0.16t-0.17-0.44l0-10.5q0-2.3-1.27-3.65t-3.51-1.35t-3.53,1.36t-1.29,3.64l0,10.5q0,0.28-0.17,0.44t-0.43,0.16l-3.24,0q-0.26,0-0.43-0.16t-0.17-0.44l0-26.8q0-0.28,0.17-0.44t0.43-0.16l3.24,0q0.26,0,0.43,0.16t0.17,0.44l0,11.04l0.56,0q0.78-1.72,2.38-2.78t3.82-1.06z  M341.22,46.96l-18.24,0q-0.26,0-0.43-0.16t-0.17-0.44l0-3.12q0-0.4,0.24-0.72l13.74-18.24l-12.98,0q-0.26,0-0.43-0.16t-0.17-0.44l0-2.92q0-0.28,0.17-0.44t0.43-0.16l17.44,0q0.26,0,0.43,0.16t0.17,0.44l0,3.12q0,0.4-0.24,0.72l-13.74,18.24l13.78,0q0.26,0,0.43,0.16t0.17,0.44l0,2.92q0,0.28-0.17,0.44t-0.43,0.16z M366.06,43.92q0.44,0.28,0.61,0.53t0.17,0.73l0,0.58q0,1.5-2.08,1.5q-1.44,0-2.38-0.89t-0.94-2.53l0-0.58l-0.22,0q-0.64,1.82-2.44,3.01t-4.56,1.19l-0.98,0q-3.02,0-4.71-1.55t-1.69-4.31q0-2.54,1.52-4.03t4.62-1.69l7.98-0.52l0-1.2q0-2.14-0.97-2.96t-3.49-0.82q-2.12,0-3.19,0.55t-1.23,1.87q-0.06,0.44-0.56,0.44l-3.08,0q-0.6,0-0.58-0.6q0.2-5.88,8.74-5.88q2.46,0,4.16,0.48t2.69,1.46t1.42,2.32t0.43,3.22l0,7.34q0,1.12,0.17,1.59t0.59,0.75z M354.72,44l0.62,0q1.46,0,2.68-0.42t2.08-1.43t0.86-2.49l0-1.42l-6.84,0.5q-2.94,0.22-2.94,2.58q0,2.68,3.54,2.68z M382.56,26.76q4.12,0,6.55,2.9t2.43,7.44t-2.43,7.45t-6.55,2.91q-2.28,0-3.83-0.92t-2.35-2.46l-0.48,0l0,9.88q0,0.28-0.17,0.44t-0.43,0.16l-3.12,0q-0.26,0-0.43-0.16t-0.17-0.44l0-26.2q0-0.28,0.17-0.44t0.43-0.16l3.24,0q0.26,0,0.43,0.16t0.17,0.44l0,2.24l0.36,0q0.8-1.46,2.35-2.35t3.83-0.89z M381.52,43.36q2.62,0,4.17-1.7t1.55-4.56t-1.55-4.55t-4.17-1.69t-4.17,1.69t-1.55,4.55q0,2.84,1.55,4.55t4.17,1.71z"/></g></svg>